<svg width="36" height="28" viewBox="0 0 36 28" fill="none" xmlns="http://www.w3.org/2000/svg">
<path d="M2.00001 28C1.43334 28 0.958673 27.776 0.576007 27.328C0.19334 26.88 0.00134023 26.3262 6.89654e-06 25.6666C-0.00132644 25.0071 0.190674 24.4533 0.576007 24.0053C0.96134 23.5573 1.43601 23.3333 2.00001 23.3333H34C34.5667 23.3333 35.042 23.5573 35.426 24.0053C35.81 24.4533 36.0013 25.0071 36 25.6666C35.9987 26.3262 35.8067 26.8807 35.424 27.3303C35.0413 27.7799 34.5667 28.0031 34 28H2.00001ZM2.00001 16.3333C1.43334 16.3333 0.958673 16.1093 0.576007 15.6613C0.19334 15.2133 0.00134023 14.6595 6.89654e-06 14C-0.00132644 13.3404 0.190674 12.7867 0.576007 12.3387C0.96134 11.8907 1.43601 11.6667 2.00001 11.6667H34C34.5667 11.6667 35.042 11.8907 35.426 12.3387C35.81 12.7867 36.0013 13.3404 36 14C35.9987 14.6595 35.8067 15.2141 35.424 15.6636C35.0413 16.1132 34.5667 16.3364 34 16.3333H2.00001ZM2.00001 4.66666C1.43334 4.66666 0.958673 4.44266 0.576007 3.99466C0.19334 3.54666 0.00134023 2.99289 6.89654e-06 2.33333C-0.00132644 1.67378 0.190674 1.12 0.576007 0.671999C0.96134 0.224 1.43601 0 2.00001 0H34C34.5667 0 35.042 0.224 35.426 0.671999C35.81 1.12 36.0013 1.67378 36 2.33333C35.9987 2.99289 35.8067 3.54744 35.424 3.99699C35.0413 4.44655 34.5667 4.66977 34 4.66666H2.00001Z" fill="#212121"/>
</svg>
